<svg width="206" height="64" viewBox="0 0 206 64" fill="none" xmlns="http://www.w3.org/2000/svg">
<path d="M47.6295 20.672C47.5442 20.672 47.4802 20.6507 47.4375 20.608C47.3735 20.5653 47.3628 20.5333 47.4055 20.512C47.8962 20.128 48.3015 19.744 48.6215 19.36C48.9628 18.976 49.3042 18.4853 49.6455 17.888L50.0935 17.12C50.5202 16.3947 51.0002 15.5627 51.5335 14.624C52.0668 13.6853 52.6002 12.736 53.1335 11.776C53.6882 10.816 54.1895 9.93067 54.6375 9.12C55.1068 8.30933 55.4802 7.65867 55.7575 7.168C56.0348 6.656 56.1735 6.4 56.1735 6.4C56.7495 5.39733 57.3788 4.64 58.0615 4.128C58.7655 3.59467 59.3842 3.25333 59.9175 3.104C58.3602 3.12533 56.9735 3.24267 55.7575 3.456C54.5415 3.66933 53.7202 4.17067 53.2935 4.96C53.2082 5.10933 53.1442 5.28 53.1015 5.472C53.0802 5.64267 53.0695 5.81333 53.0695 5.984C53.0695 6.53867 53.2188 6.93333 53.5175 7.168C53.5388 7.18933 53.5495 7.21067 53.5495 7.232C53.5495 7.27467 53.5068 7.31733 53.4215 7.36C53.3575 7.40267 53.2935 7.41333 53.2295 7.392C53.0375 7.28533 52.8028 7.02933 52.5255 6.624C52.2482 6.19733 52.0775 5.84533 52.0135 5.568C51.9495 5.312 51.9175 5.07733 51.9175 4.864C51.9175 4.288 52.1202 3.84 52.5255 3.52C52.9308 3.2 53.4215 2.976 53.9975 2.848C54.5948 2.72 55.2028 2.64533 55.8215 2.624C56.4402 2.60267 56.9522 2.592 57.3575 2.592H58.6375C59.0642 2.592 59.5228 2.592 60.0135 2.592C60.5255 2.57067 60.9522 2.528 61.2935 2.464H61.4215C61.5495 2.464 61.6455 2.50667 61.7095 2.592C61.7735 2.67733 61.8055 2.76267 61.8055 2.848C61.8055 3.01867 61.7308 3.104 61.5815 3.104C61.4962 3.104 61.4215 3.104 61.3575 3.104C61.3148 3.08267 61.2508 3.072 61.1655 3.072C60.1842 3.072 59.2028 3.92533 58.2215 5.632C58.2215 5.632 58.1042 5.824 57.8695 6.208C57.6562 6.57067 57.3788 7.04 57.0375 7.616C56.7175 8.192 56.3762 8.8 56.0135 9.44C55.6508 10.08 55.3308 10.656 55.0535 11.168C54.4775 12.2347 53.8588 13.3973 53.1975 14.656C52.5575 15.8933 51.8962 17.184 51.2135 18.528C51.0642 18.784 50.9362 19.0827 50.8295 19.424C50.7228 19.744 50.5628 19.904 50.3495 19.904C50.2642 19.904 50.1575 19.8933 50.0295 19.872C49.9015 19.8507 49.7628 19.84 49.6135 19.84C49.2508 19.84 48.9202 19.904 48.6215 20.032C48.3442 20.16 48.0562 20.3627 47.7575 20.64C47.7362 20.6613 47.6935 20.672 47.6295 20.672ZM61.5815 20.352C61.0482 20.352 60.5042 20.1813 59.9495 19.84C59.3948 19.4773 58.8295 18.9227 58.2535 18.176C57.5708 17.2587 56.9948 16.3733 56.5255 15.52C56.0562 14.6453 55.6722 13.888 55.3735 13.248C55.0962 12.608 54.8828 12.1493 54.7335 11.872C55.9282 10.7627 57.1548 9.77067 58.4135 8.896C59.6935 8.02133 60.9628 7.18933 62.2215 6.4C63.0748 5.888 63.9922 5.32267 64.9735 4.704C65.9548 4.064 66.9468 3.53067 67.9495 3.104C68.6535 2.80533 69.3362 2.656 69.9975 2.656C70.2962 2.656 70.5948 2.688 70.8935 2.752C71.1922 2.79467 71.4802 2.86933 71.7575 2.976C71.9708 3.04 72.2162 3.17867 72.4935 3.392C72.7708 3.584 72.8882 3.808 72.8455 4.064C72.8455 4.14933 72.8028 4.192 72.7175 4.192C72.6108 4.192 72.5148 4.128 72.4295 4C72.3442 3.872 72.2162 3.744 72.0455 3.616C71.8748 3.488 71.6082 3.424 71.2455 3.424C70.7762 3.424 70.2535 3.52 69.6775 3.712C69.1228 3.904 68.6322 4.08533 68.2055 4.256C67.3522 4.61867 66.4562 5.01333 65.5175 5.44C64.5788 5.86667 63.6935 6.31467 62.8615 6.784C62.1148 7.18933 61.3255 7.65867 60.4935 8.192C59.6615 8.72533 58.8508 9.26933 58.0615 9.824C57.2935 10.3573 56.6002 10.848 55.9815 11.296C56.1095 11.616 56.3228 12.096 56.6215 12.736C56.9202 13.376 57.3148 14.1013 57.8055 14.912C58.2962 15.7013 58.8722 16.5013 59.5335 17.312C60.0242 17.9093 60.5042 18.3467 60.9735 18.624C61.4642 18.88 61.9228 19.008 62.3495 19.008C62.9255 19.008 63.4588 18.848 63.9495 18.528C64.4615 18.1867 64.9415 17.76 65.3895 17.248C65.8588 16.736 66.2962 16.2133 66.7015 15.68C66.8082 15.552 66.8828 15.488 66.9255 15.488C67.0108 15.488 67.0535 15.5413 67.0535 15.648C67.0535 15.776 67.0002 15.904 66.8935 16.032C65.9548 17.3333 65.0482 18.3787 64.1735 19.168C63.3202 19.9573 62.4562 20.352 61.5815 20.352ZM70.7838 20.096C70.5704 20.096 70.3891 20.0533 70.2398 19.968C70.0904 19.8827 70.0158 19.7227 70.0158 19.488C70.0158 19.1893 70.0904 18.848 70.2398 18.464C70.3891 18.08 70.5598 17.7067 70.7518 17.344C70.9438 16.96 71.1144 16.6507 71.2638 16.416C70.5171 17.2053 69.7384 17.952 68.9278 18.656C68.5224 18.9973 68.0744 19.3173 67.5838 19.616C67.0931 19.9147 66.5704 20.064 66.0158 20.064C65.8024 20.064 65.6531 20 65.5678 19.872C65.4824 19.7227 65.4398 19.552 65.4398 19.36C65.4398 19.2533 65.4504 19.1787 65.4718 19.136C65.5784 18.304 65.8451 17.44 66.2718 16.544C66.6984 15.648 67.2211 14.8053 67.8398 14.016C68.4584 13.2267 69.0878 12.5867 69.7278 12.096C70.4531 11.5413 71.2531 11.264 72.1278 11.264H75.8078C75.9144 11.264 75.9678 11.3067 75.9678 11.392C75.9678 11.5627 75.8718 11.648 75.6798 11.648C75.4664 11.648 75.2531 11.7867 75.0398 12.064C74.8264 12.32 74.6664 12.5333 74.5598 12.704C74.4104 12.9387 74.1758 13.3333 73.8558 13.888C73.5358 14.4427 73.2051 15.0507 72.8638 15.712C72.5438 16.352 72.2664 16.9493 72.0318 17.504C71.7971 18.0587 71.6798 18.464 71.6798 18.72C71.6798 19.0187 71.8291 19.168 72.1278 19.168C72.4478 19.168 72.8104 19.0187 73.2158 18.72C73.6211 18.4213 74.0264 18.0587 74.4318 17.632C74.8584 17.184 75.2424 16.7467 75.5838 16.32C75.9464 15.872 76.2344 15.52 76.4478 15.264C76.5758 15.392 76.5651 15.5733 76.4158 15.808C76.2878 16.0213 76.1704 16.192 76.0638 16.32C75.6371 16.8747 75.1464 17.4507 74.5918 18.048C74.0371 18.624 73.4291 19.1147 72.7678 19.52C72.1278 19.904 71.4664 20.096 70.7838 20.096ZM67.3278 18.976C67.5838 18.976 67.9358 18.7947 68.3838 18.432C68.8531 18.048 69.3544 17.5787 69.8878 17.024C70.4211 16.448 70.9224 15.8507 71.3918 15.232C71.8611 14.592 72.2451 14.016 72.5438 13.504C72.8638 12.9707 73.0238 12.5653 73.0238 12.288C73.0238 12.0533 72.9491 11.8933 72.7998 11.808C72.6718 11.7227 72.5011 11.68 72.2878 11.68C71.9464 11.68 71.5731 11.808 71.1678 12.064C70.7838 12.2987 70.4744 12.5333 70.2398 12.768C69.9838 13.0027 69.6744 13.376 69.3118 13.888C68.9704 14.3787 68.6291 14.9227 68.2878 15.52C67.9464 16.1173 67.6584 16.6933 67.4238 17.248C67.1891 17.8027 67.0718 18.2507 67.0718 18.592C67.0718 18.848 67.1571 18.976 67.3278 18.976ZM76.03 20.448C75.9447 20.448 75.9447 20.3627 76.03 20.192C76.1367 20 76.2327 19.7867 76.318 19.552C76.4247 19.3173 76.5313 19.0613 76.638 18.784C76.8513 18.272 77.086 17.696 77.342 17.056C77.598 16.416 77.8433 15.7973 78.078 15.2C78.3127 14.5813 78.5153 14.0587 78.686 13.632C78.878 13.184 79.006 12.896 79.07 12.768C78.7713 13.088 78.4087 13.4933 77.982 13.984C77.5767 14.4533 77.1927 14.912 76.83 15.36C76.4673 15.808 76.19 16.16 75.998 16.416C75.934 16.5013 75.8807 16.544 75.838 16.544C75.7953 16.544 75.774 16.4907 75.774 16.384C75.774 16.2133 75.8273 16.0533 75.934 15.904C76.3393 15.392 76.7873 14.816 77.278 14.176C77.79 13.536 78.2487 12.9493 78.654 12.416C79.0593 11.8613 79.3153 11.4987 79.422 11.328C79.6567 11.2853 79.998 11.2213 80.446 11.136C80.9153 11.0507 81.2353 10.9333 81.406 10.784C81.47 10.72 81.534 10.688 81.598 10.688C81.6407 10.688 81.662 10.7307 81.662 10.816C81.6833 10.88 81.662 10.9547 81.598 11.04C81.47 11.168 81.278 11.4453 81.022 11.872C80.7873 12.2987 80.5207 12.7893 80.222 13.344C79.9233 13.8987 79.6353 14.432 79.358 14.944C79.5713 14.624 79.8487 14.2507 80.19 13.824C80.5527 13.376 80.9473 12.9493 81.374 12.544C81.8007 12.1173 82.2273 11.7653 82.654 11.488C83.102 11.2107 83.518 11.072 83.902 11.072C84.1793 11.072 84.414 11.136 84.606 11.264C84.798 11.3707 84.9473 11.5733 85.054 11.872C85.118 12.0213 85.15 12.192 85.15 12.384C85.15 12.7467 85.054 13.0987 84.862 13.44C84.6913 13.76 84.5633 14.0053 84.478 14.176C84.4567 14.24 84.382 14.304 84.254 14.368C84.126 14.4107 84.0727 14.3893 84.094 14.304C84.1153 14.1973 84.126 14.0907 84.126 13.984C84.1473 13.8773 84.158 13.76 84.158 13.632C84.158 13.2693 84.0833 12.9387 83.934 12.64C83.806 12.3413 83.5607 12.192 83.198 12.192C82.8567 12.192 82.4407 12.4053 81.95 12.832C81.4593 13.2587 80.9687 13.7493 80.478 14.304C79.8593 15.0293 79.3687 15.7227 79.006 16.384C78.6433 17.024 78.3447 17.6533 78.11 18.272C77.982 18.6133 77.854 18.9547 77.726 19.296C77.598 19.616 77.502 19.872 77.438 20.064C77.1607 20.0853 76.8833 20.1493 76.606 20.256C76.3287 20.384 76.1367 20.448 76.03 20.448ZM85.0688 20.064C84.7274 20.064 84.4181 20 84.1408 19.872C83.8848 19.7227 83.7568 19.4133 83.7568 18.944C83.7568 18.1973 83.9488 17.4507 84.3328 16.704C84.7168 15.936 85.1114 15.264 85.5168 14.688C85.8794 14.1973 86.2848 13.7387 86.7328 13.312C87.2021 12.864 87.7034 12.48 88.2368 12.16C88.5781 11.9467 89.0368 11.7227 89.6128 11.488C90.2101 11.232 90.7114 11.104 91.1168 11.104C91.4581 11.104 91.7568 11.2 92.0128 11.392C92.2688 11.5627 92.3968 11.8827 92.3968 12.352C92.3968 13.0773 92.2048 13.824 91.8208 14.592C91.4581 15.3387 91.0741 16 90.6688 16.576C90.4768 16.832 90.2848 17.0773 90.0928 17.312C89.9008 17.5253 89.6874 17.7493 89.4528 17.984C90.2421 17.984 90.9674 17.76 91.6288 17.312C92.2901 16.8427 92.8661 16.2773 93.3568 15.616L93.4208 15.552C93.4848 15.552 93.5168 15.616 93.5168 15.744C93.5168 15.8933 93.4741 16.032 93.3888 16.16C92.9621 16.7573 92.4288 17.2907 91.7888 17.76C91.1488 18.208 90.4234 18.432 89.6128 18.432C89.5274 18.432 89.4421 18.432 89.3568 18.432C89.2714 18.432 89.1861 18.4213 89.1008 18.4C87.9061 19.5093 86.5621 20.064 85.0688 20.064ZM85.9008 19.52C86.1994 19.52 86.5194 19.4133 86.8608 19.2C87.2234 18.9867 87.5008 18.784 87.6927 18.592C88.0554 18.2293 88.3861 17.8453 88.6848 17.44C88.9834 17.0133 89.2608 16.5867 89.5168 16.16C89.8154 15.648 90.1141 15.04 90.4128 14.336C90.7114 13.632 90.8608 12.9707 90.8608 12.352C90.8608 11.8613 90.6901 11.616 90.3488 11.616C90.0714 11.616 89.7301 11.7333 89.3248 11.968C88.9408 12.2027 88.6528 12.416 88.4608 12.608C87.7354 13.3547 87.1274 14.1653 86.6368 15.04C86.3594 15.5307 86.0608 16.1067 85.7408 16.768C85.4208 17.4293 85.2608 18.0373 85.2608 18.592C85.2608 18.6773 85.2608 18.7627 85.2608 18.848C85.2821 18.912 85.3034 18.9867 85.3248 19.072C85.4101 19.3707 85.6021 19.52 85.9008 19.52ZM95.1375 20.064C94.4975 20.064 94.0602 19.9147 93.8255 19.616C93.5908 19.296 93.4735 18.912 93.4735 18.464C93.4735 17.8667 93.6015 17.2267 93.8575 16.544C94.1348 15.8613 94.3588 15.328 94.5295 14.944C94.2522 15.2427 93.9855 15.5307 93.7295 15.808C93.4735 16.0853 93.2922 16.288 93.1855 16.416C93.1215 16.5013 93.0682 16.544 93.0255 16.544C92.9828 16.544 92.9615 16.4907 92.9615 16.384C92.9615 16.2133 93.0148 16.0533 93.1215 15.904C93.4202 15.52 93.7615 15.1147 94.1455 14.688C94.5295 14.2613 94.9028 13.8133 95.2655 13.344C95.6922 12.5547 96.1615 11.6373 96.6735 10.592C97.2068 9.52533 97.7508 8.43733 98.3055 7.328C98.8815 6.19733 99.4362 5.16267 99.9695 4.224C100.524 3.264 101.015 2.496 101.442 1.92C101.804 1.77067 102.146 1.57867 102.466 1.344C102.807 1.10933 103.138 0.895999 103.458 0.703999C103.799 0.490665 104.151 0.383999 104.514 0.383999C104.748 0.383999 104.919 0.447999 105.026 0.575998C105.154 0.703999 105.239 0.853333 105.282 1.024C105.303 1.088 105.314 1.20533 105.314 1.376C105.314 1.86667 105.143 2.464 104.802 3.168C104.482 3.872 104.098 4.56533 103.65 5.248C103.223 5.90933 102.85 6.45333 102.53 6.88C101.676 8.07467 100.802 9.16267 99.9055 10.144C99.0095 11.104 98.1988 11.9147 97.4735 12.576C96.7695 13.216 96.2575 13.6853 95.9375 13.984C95.7882 14.2613 95.6068 14.6347 95.3935 15.104C95.2015 15.552 95.0308 16.032 94.8815 16.544C94.7322 17.0347 94.6575 17.4933 94.6575 17.92C94.6575 18.2827 94.7428 18.592 94.9135 18.848C95.0842 19.0827 95.3722 19.2 95.7775 19.2C95.8415 19.2 95.9055 19.2 95.9695 19.2C96.0335 19.2 96.1082 19.1893 96.1935 19.168C96.5562 19.104 96.9508 18.9013 97.3775 18.56C97.8042 18.2187 98.2308 17.824 98.6575 17.376C99.0842 16.928 99.4682 16.5013 99.8095 16.096C99.9588 15.9253 100.098 15.7653 100.226 15.616C100.354 15.4453 100.439 15.328 100.482 15.264C100.631 15.4133 100.62 15.6053 100.45 15.84C100.3 16.0533 100.172 16.2347 100.066 16.384C99.9162 16.576 99.7028 16.8427 99.4255 17.184C99.1482 17.504 98.8282 17.856 98.4655 18.24C98.0602 18.6453 97.5588 19.0507 96.9615 19.456C96.3642 19.8613 95.7562 20.064 95.1375 20.064ZM96.4815 12.704C97.1428 12.1493 97.9748 11.36 98.9775 10.336C100.002 9.29067 101.004 8.032 101.986 6.56C102.092 6.38933 102.263 6.10133 102.498 5.696C102.754 5.29067 103.01 4.832 103.266 4.32C103.543 3.78667 103.778 3.27467 103.97 2.784C104.162 2.272 104.258 1.83467 104.258 1.472C104.258 1.13067 104.162 0.959999 103.97 0.959999C103.735 0.959999 103.426 1.16267 103.042 1.568C102.594 2.03733 102.082 2.73067 101.506 3.648C100.951 4.544 100.364 5.54667 99.7455 6.656C99.1268 7.76533 98.5295 8.85333 97.9535 9.92C97.3988 10.9867 96.9082 11.9147 96.4815 12.704ZM111.26 21.088C110.513 21.088 109.724 20.9707 108.891 20.736C108.081 20.5227 107.356 20.16 106.716 19.648C106.097 19.136 105.681 18.4533 105.468 17.6C105.446 17.4933 105.425 17.376 105.404 17.248C105.404 17.12 105.404 16.992 105.404 16.864C105.404 16.2027 105.553 15.5627 105.852 14.944C106.15 14.3253 106.513 13.856 106.94 13.536H106.972C107.014 13.536 107.068 13.5893 107.132 13.696C107.217 13.7813 107.217 13.8453 107.132 13.888C106.918 14.1013 106.758 14.3467 106.652 14.624C106.566 14.88 106.524 15.1573 106.524 15.456C106.524 15.8613 106.588 16.2773 106.716 16.704C106.865 17.1093 107.046 17.4613 107.26 17.76C107.793 18.5067 108.529 19.104 109.468 19.552C110.428 19.9787 111.366 20.192 112.284 20.192C113.542 20.192 114.513 19.8187 115.196 19.072C115.9 18.3253 116.252 17.408 116.252 16.32C116.252 15.6587 116.124 14.9973 115.868 14.336C115.526 13.4187 115.068 12.5227 114.492 11.648C113.937 10.752 113.425 9.87733 112.956 9.024C112.55 8.256 112.348 7.47733 112.348 6.688C112.348 5.856 112.604 5.056 113.116 4.288C113.628 3.60533 114.3 3.06133 115.132 2.656C115.985 2.22933 116.849 2.016 117.724 2.016C118.321 2.016 118.897 2.12267 119.452 2.336C120.006 2.54933 120.508 2.90133 120.956 3.392C121.084 3.584 121.148 3.82933 121.148 4.128C121.148 4.55467 121.062 4.88533 120.892 5.12C120.7 5.39733 120.486 5.76 120.252 6.208C120.017 6.656 119.878 6.96533 119.836 7.136C119.793 7.15733 119.686 7.2 119.516 7.264C119.366 7.30667 119.27 7.296 119.228 7.232C119.313 7.06133 119.43 6.752 119.58 6.304C119.729 5.856 119.804 5.45067 119.804 5.088C119.804 4.85333 119.793 4.59733 119.772 4.32C119.772 4.02133 119.633 3.76533 119.356 3.552C119.1 3.31733 118.769 3.11467 118.364 2.944C117.958 2.77333 117.468 2.688 116.892 2.688C115.718 2.688 114.822 3.02933 114.204 3.712C113.585 4.39467 113.276 5.14133 113.276 5.952C113.276 6.35733 113.361 6.76267 113.532 7.168C113.852 7.936 114.3 8.66133 114.876 9.344C115.452 10.0267 116.017 10.7307 116.572 11.456C117.148 12.16 117.596 12.928 117.916 13.76C118.129 14.3147 118.236 14.88 118.236 15.456C118.236 16.288 118.022 17.0453 117.596 17.728C117.19 18.4107 116.636 19.008 115.932 19.52C115.249 20.0107 114.502 20.3947 113.692 20.672C112.881 20.9493 112.07 21.088 111.26 21.088ZM120.225 20.064C119.884 20.064 119.574 20 119.297 19.872C119.041 19.7227 118.913 19.4133 118.913 18.944C118.913 18.1973 119.105 17.4507 119.489 16.704C119.873 15.936 120.268 15.264 120.673 14.688C121.036 14.1973 121.441 13.7387 121.889 13.312C122.358 12.864 122.86 12.48 123.393 12.16C123.734 11.9467 124.193 11.7227 124.769 11.488C125.366 11.232 125.868 11.104 126.273 11.104C126.614 11.104 126.913 11.2 127.169 11.392C127.425 11.5627 127.553 11.8827 127.553 12.352C127.553 13.0773 127.361 13.824 126.977 14.592C126.614 15.3387 126.23 16 125.825 16.576C125.633 16.832 125.441 17.0773 125.249 17.312C125.057 17.5253 124.844 17.7493 124.609 17.984C125.398 17.984 126.124 17.76 126.785 17.312C127.446 16.8427 128.022 16.2773 128.513 15.616L128.577 15.552C128.641 15.552 128.673 15.616 128.673 15.744C128.673 15.8933 128.63 16.032 128.545 16.16C128.118 16.7573 127.585 17.2907 126.945 17.76C126.305 18.208 125.58 18.432 124.769 18.432C124.684 18.432 124.598 18.432 124.513 18.432C124.428 18.432 124.342 18.4213 124.257 18.4C123.062 19.5093 121.718 20.064 120.225 20.064ZM121.057 19.52C121.356 19.52 121.676 19.4133 122.017 19.2C122.38 18.9867 122.657 18.784 122.849 18.592C123.212 18.2293 123.542 17.8453 123.841 17.44C124.14 17.0133 124.417 16.5867 124.673 16.16C124.972 15.648 125.27 15.04 125.569 14.336C125.868 13.632 126.017 12.9707 126.017 12.352C126.017 11.8613 125.846 11.616 125.505 11.616C125.228 11.616 124.886 11.7333 124.481 11.968C124.097 12.2027 123.809 12.416 123.617 12.608C122.892 13.3547 122.284 14.1653 121.793 15.04C121.516 15.5307 121.217 16.1067 120.897 16.768C120.577 17.4293 120.417 18.0373 120.417 18.592C120.417 18.6773 120.417 18.7627 120.417 18.848C120.438 18.912 120.46 18.9867 120.481 19.072C120.566 19.3707 120.758 19.52 121.057 19.52ZM129.974 20.096C129.76 20.096 129.579 20.0533 129.43 19.968C129.28 19.8827 129.206 19.7227 129.206 19.488C129.206 19.1893 129.28 18.8373 129.43 18.432C129.6 18.0267 129.782 17.6213 129.974 17.216C130.166 16.8107 130.326 16.48 130.454 16.224C130.71 15.7333 130.955 15.2427 131.19 14.752C131.424 14.2613 131.627 13.8453 131.798 13.504C131.968 13.184 132.054 12.9707 132.054 12.864C132.054 12.6933 131.926 12.6933 131.67 12.864C131.435 13.0347 131.211 13.2053 130.998 13.376C130.528 13.824 130.038 14.3573 129.526 14.976C129.014 15.5733 128.619 16.0533 128.342 16.416C128.278 16.5013 128.224 16.544 128.182 16.544C128.139 16.544 128.118 16.4907 128.118 16.384C128.118 16.2133 128.171 16.0533 128.278 15.904C128.576 15.4773 128.928 15.008 129.334 14.496C129.739 13.984 130.155 13.4933 130.582 13.024C130.987 12.5973 131.403 12.1813 131.83 11.776C132.256 11.3707 132.8 11.168 133.462 11.168C133.91 11.168 134.134 11.3387 134.134 11.68C134.134 11.9787 134.006 12.32 133.75 12.704C133.6 12.9387 133.366 13.3333 133.046 13.888C132.726 14.4427 132.395 15.0507 132.054 15.712C131.734 16.352 131.456 16.9493 131.222 17.504C130.987 18.0587 130.87 18.464 130.87 18.72C130.87 19.0187 131.019 19.168 131.318 19.168C131.552 19.168 131.84 19.0507 132.182 18.816C132.523 18.56 132.875 18.2613 133.238 17.92C133.899 17.28 134.496 16.5867 135.03 15.84C135.584 15.072 136.054 14.336 136.438 13.632C136.843 12.928 137.163 12.352 137.398 11.904C137.44 11.8187 137.483 11.7227 137.526 11.616C137.59 11.488 137.686 11.4133 137.814 11.392C137.942 11.3707 138.219 11.36 138.646 11.36C139.072 11.36 139.467 11.2747 139.83 11.104H139.894C139.958 11.104 139.99 11.136 139.99 11.2C139.99 11.3707 139.851 11.4987 139.574 11.584C139.318 11.6693 139.019 11.9253 138.678 12.352C138.358 12.7787 138.038 13.3013 137.718 13.92C137.398 14.5173 137.11 15.136 136.854 15.776C136.598 16.416 136.406 17.0027 136.278 17.536C136.15 18.0693 136.118 18.464 136.182 18.72C136.267 19.0187 136.416 19.168 136.63 19.168C136.907 19.168 137.291 18.9973 137.782 18.656C138.294 18.3147 138.816 17.9093 139.35 17.44C139.883 16.9493 140.32 16.5013 140.662 16.096C140.811 15.9253 140.95 15.7547 141.078 15.584C141.206 15.4133 141.291 15.3067 141.334 15.264C141.355 15.2853 141.376 15.328 141.398 15.392C141.419 15.4347 141.43 15.4773 141.43 15.52C141.408 15.6693 141.355 15.8187 141.27 15.968C141.184 16.096 141.088 16.2133 140.982 16.32C140.576 16.8533 140.086 17.4187 139.51 18.016C138.955 18.592 138.347 19.0827 137.686 19.488C137.046 19.8933 136.384 20.096 135.702 20.096C135.488 20.096 135.243 20.0427 134.966 19.936C134.71 19.8293 134.582 19.5947 134.582 19.232C134.582 18.9547 134.656 18.5813 134.806 18.112C134.955 17.6213 135.115 17.1413 135.286 16.672C135.478 16.1813 135.638 15.8187 135.766 15.584C135.488 15.9893 135.147 16.448 134.742 16.96C134.358 17.4507 133.963 17.888 133.558 18.272C133.024 18.784 132.448 19.2213 131.83 19.584C131.232 19.9253 130.614 20.096 129.974 20.096ZM149.416 24.064C149.096 24.064 148.776 23.968 148.456 23.776C148.136 23.6053 147.731 23.2747 147.24 22.784C146.771 22.2933 146.11 21.568 145.256 20.608C144.787 20.0533 144.339 19.5627 143.912 19.136C143.507 18.7093 143.006 18.496 142.408 18.496C141.939 18.496 141.48 18.6453 141.032 18.944C140.584 19.2213 140.296 19.5947 140.168 20.064C140.147 20.192 140.115 20.3093 140.072 20.416C140.03 20.5227 139.976 20.6293 139.912 20.736C139.848 20.8427 139.742 20.896 139.592 20.896C139.486 20.896 139.39 20.8533 139.304 20.768C139.198 20.6827 139.144 20.5653 139.144 20.416C139.144 20.352 139.187 20.2347 139.272 20.064C139.379 19.872 139.582 19.616 139.88 19.296C140.179 18.9547 140.51 18.592 140.872 18.208C141.235 17.824 141.576 17.472 141.896 17.152C142.216 16.8107 142.472 16.5653 142.664 16.416C143.539 15.6693 144.35 14.9547 145.096 14.272C145.864 13.568 146.696 12.8533 147.592 12.128C147.315 12.128 146.931 12.1387 146.44 12.16C145.95 12.1813 145.427 12.2133 144.872 12.256C144.339 12.2987 143.87 12.3627 143.464 12.448C143.059 12.5333 142.803 12.6507 142.696 12.8C142.547 12.992 142.398 13.088 142.248 13.088C142.163 13.088 142.12 13.056 142.12 12.992C142.12 12.928 142.174 12.8427 142.28 12.736C142.472 12.5227 142.622 12.32 142.728 12.128C142.835 11.9147 142.942 11.712 143.048 11.52C143.283 11.5413 143.518 11.5627 143.752 11.584C143.987 11.584 144.232 11.584 144.488 11.584C145.128 11.584 145.779 11.5733 146.44 11.552C147.123 11.5093 147.752 11.488 148.328 11.488C148.52 11.488 148.67 11.6267 148.776 11.904C148.904 12.16 148.979 12.3627 149 12.512C148.275 13.0453 147.464 13.632 146.568 14.272C145.672 14.8907 144.798 15.5413 143.944 16.224C143.539 16.5227 143.07 16.9173 142.536 17.408C142.024 17.8773 141.587 18.2613 141.224 18.56C141.822 18.2613 142.376 18.112 142.888 18.112C143.571 18.112 144.179 18.336 144.712 18.784C145.267 19.232 145.864 19.7653 146.504 20.384C147.144 21.024 147.784 21.5787 148.424 22.048C149.064 22.5173 149.608 22.752 150.056 22.752C150.206 22.7307 150.355 22.6987 150.504 22.656C150.654 22.6133 150.782 22.5493 150.888 22.464C151.059 22.3147 151.144 22.144 151.144 21.952C151.144 21.7173 151.048 21.472 150.856 21.216C150.664 20.9813 150.494 20.8213 150.344 20.736C150.323 20.7147 150.312 20.6933 150.312 20.672C150.312 20.608 150.355 20.5547 150.44 20.512C150.526 20.4693 150.611 20.4693 150.696 20.512C150.974 20.6613 151.198 20.8747 151.368 21.152C151.539 21.4293 151.624 21.7387 151.624 22.08C151.624 22.4213 151.518 22.7413 151.304 23.04C151.112 23.3173 150.846 23.552 150.504 23.744C150.163 23.9573 149.8 24.064 149.416 24.064ZM152.596 20.096C152.383 20.096 152.202 20.0533 152.052 19.968C151.903 19.8827 151.828 19.7227 151.828 19.488C151.828 19.1893 151.903 18.848 152.052 18.464C152.202 18.08 152.372 17.7067 152.564 17.344C152.756 16.96 152.927 16.6507 153.076 16.416C152.33 17.2053 151.551 17.952 150.74 18.656C150.335 18.9973 149.887 19.3173 149.396 19.616C148.906 19.9147 148.383 20.064 147.828 20.064C147.615 20.064 147.466 20 147.38 19.872C147.295 19.7227 147.252 19.552 147.252 19.36C147.252 19.2533 147.263 19.1787 147.284 19.136C147.391 18.304 147.658 17.44 148.084 16.544C148.511 15.648 149.034 14.8053 149.652 14.016C150.271 13.2267 150.9 12.5867 151.54 12.096C152.266 11.5413 153.066 11.264 153.94 11.264H157.62C157.727 11.264 157.78 11.3067 157.78 11.392C157.78 11.5627 157.684 11.648 157.492 11.648C157.279 11.648 157.066 11.7867 156.852 12.064C156.639 12.32 156.479 12.5333 156.372 12.704C156.223 12.9387 155.988 13.3333 155.668 13.888C155.348 14.4427 155.018 15.0507 154.676 15.712C154.356 16.352 154.079 16.9493 153.844 17.504C153.61 18.0587 153.492 18.464 153.492 18.72C153.492 19.0187 153.642 19.168 153.94 19.168C154.26 19.168 154.623 19.0187 155.028 18.72C155.434 18.4213 155.839 18.0587 156.244 17.632C156.671 17.184 157.055 16.7467 157.396 16.32C157.759 15.872 158.047 15.52 158.26 15.264C158.388 15.392 158.378 15.5733 158.228 15.808C158.1 16.0213 157.983 16.192 157.876 16.32C157.45 16.8747 156.959 17.4507 156.404 18.048C155.85 18.624 155.242 19.1147 154.58 19.52C153.94 19.904 153.279 20.096 152.596 20.096ZM149.14 18.976C149.396 18.976 149.748 18.7947 150.196 18.432C150.666 18.048 151.167 17.5787 151.7 17.024C152.234 16.448 152.735 15.8507 153.204 15.232C153.674 14.592 154.058 14.016 154.356 13.504C154.676 12.9707 154.836 12.5653 154.836 12.288C154.836 12.0533 154.762 11.8933 154.612 11.808C154.484 11.7227 154.314 11.68 154.1 11.68C153.759 11.68 153.386 11.808 152.98 12.064C152.596 12.2987 152.287 12.5333 152.052 12.768C151.796 13.0027 151.487 13.376 151.124 13.888C150.783 14.3787 150.442 14.9227 150.1 15.52C149.759 16.1173 149.471 16.6933 149.236 17.248C149.002 17.8027 148.884 18.2507 148.884 18.592C148.884 18.848 148.97 18.976 149.14 18.976ZM4.22763 60.32C3.56629 60.32 2.93696 60.1387 2.33963 59.776C1.74229 59.392 1.29429 58.816 0.995625 58.048C0.888958 57.7707 0.814292 57.4827 0.771625 57.184C0.728958 56.864 0.707625 56.5547 0.707625 56.256C0.707625 55.9573 0.760958 55.808 0.867625 55.808C0.995625 55.808 1.05963 55.8933 1.05963 56.064C1.05963 57.0667 1.30496 57.824 1.79563 58.336C2.30763 58.848 2.93696 59.104 3.68363 59.104C4.43029 59.104 5.14496 58.8907 5.82763 58.464C6.53163 58.0373 7.18229 57.4933 7.77963 56.832C8.76096 55.7653 9.59296 54.688 10.2756 53.6C10.9583 52.4907 11.577 51.36 12.1316 50.208C12.7076 49.0347 13.2836 47.8187 13.8596 46.56C14.2223 45.792 14.6703 45.12 15.2036 44.544C15.7583 43.968 16.4196 43.5733 17.1876 43.36L17.2196 43.328H15.4596C14.713 43.328 13.9236 43.36 13.0916 43.424C12.2596 43.488 11.5023 43.6267 10.8196 43.84C10.1583 44.0533 9.67829 44.3733 9.37963 44.8C9.18763 45.0773 9.09163 45.3973 9.09163 45.76C9.09163 46.1227 9.18763 46.4747 9.37963 46.816C9.57163 47.1573 9.81696 47.4027 10.1156 47.552C10.1583 47.5947 10.1796 47.6267 10.1796 47.648C10.1796 47.6907 10.1263 47.744 10.0196 47.808C9.93429 47.8507 9.83829 47.8613 9.73163 47.84C9.56096 47.7333 9.34763 47.5627 9.09163 47.328C8.83563 47.072 8.60096 46.8053 8.38763 46.528C8.19563 46.2507 8.06763 46.016 8.00363 45.824C7.91829 45.568 7.87563 45.312 7.87563 45.056C7.87563 44.544 8.05696 44.128 8.41963 43.808C8.80363 43.488 9.29429 43.2427 9.89163 43.072C10.489 42.9013 11.129 42.784 11.8116 42.72C12.5156 42.6347 13.1876 42.592 13.8276 42.592C14.489 42.5707 15.0543 42.56 15.5236 42.56H18.9796C19.0223 42.56 19.0436 42.5707 19.0436 42.592C19.0436 42.656 18.969 42.752 18.8196 42.88C18.6916 42.9867 18.6063 43.04 18.5636 43.04C18.0303 43.1467 17.6356 43.4347 17.3796 43.904C17.1236 44.352 17.0063 45.0773 17.0276 46.08C17.0276 46.08 17.0276 46.3147 17.0276 46.784C17.049 47.2533 17.0703 47.8613 17.0916 48.608C17.113 49.3547 17.1343 50.1547 17.1556 51.008C17.177 51.8613 17.1983 52.6827 17.2196 53.472C17.241 54.2613 17.2623 54.9227 17.2836 55.456V55.648L28.3876 43.936C29.0916 43.1893 29.785 42.56 30.4676 42.048C31.1716 41.5147 31.897 41.28 32.6436 41.344C32.665 41.344 32.6756 41.3547 32.6756 41.376C32.697 41.376 32.7076 41.376 32.7076 41.376C32.7076 41.44 32.665 41.5147 32.5796 41.6C32.4943 41.6853 32.3983 41.7387 32.2916 41.76C31.737 41.7387 31.2356 41.952 30.7876 42.4C30.3396 42.848 29.9236 43.3813 29.5396 44C29.3476 44.32 29.0596 44.832 28.6756 45.536C28.2916 46.2187 27.8543 47.0293 27.3636 47.968C26.8943 48.9067 26.4143 49.8987 25.9236 50.944C25.433 51.9893 24.9743 53.0133 24.5476 54.016C24.1423 55.0187 23.8116 55.936 23.5556 56.768C23.2996 57.5787 23.1716 58.24 23.1716 58.752C23.1716 59.3493 23.3743 59.648 23.7796 59.648C23.9503 59.648 24.1316 59.6053 24.3236 59.52C24.601 59.4133 24.9103 59.2533 25.2516 59.04C25.593 58.8267 25.9023 58.5813 26.1796 58.304C26.7343 57.7707 27.225 57.2267 27.6516 56.672C28.0783 56.096 28.3343 55.7653 28.4196 55.68C28.4836 55.5947 28.537 55.552 28.5796 55.552C28.665 55.552 28.7076 55.616 28.7076 55.744C28.7076 55.872 28.665 55.9893 28.5796 56.096C28.409 56.3093 28.121 56.6827 27.7156 57.216C27.3103 57.728 26.8303 58.2507 26.2756 58.784C25.7423 59.3173 25.1663 59.7227 24.5476 60C24.3556 60.0853 24.153 60.1493 23.9396 60.192C23.7263 60.256 23.513 60.288 23.2996 60.288C22.8303 60.288 22.4036 60.1493 22.0196 59.872C21.657 59.5733 21.4756 59.0827 21.4756 58.4C21.4756 57.7387 21.625 56.992 21.9236 56.16C22.2436 55.3067 22.5956 54.4853 22.9796 53.696C23.385 52.8853 23.7156 52.2027 23.9716 51.648C24.249 51.072 24.601 50.336 25.0276 49.44C25.4543 48.544 25.945 47.6373 26.4996 46.72L17.2836 56.448C17.2623 56.6187 17.1876 56.7893 17.0596 56.96C16.9316 57.1093 16.729 57.2373 16.4516 57.344C16.3023 57.408 16.0996 57.5787 15.8436 57.856C15.5876 58.1333 15.417 58.3253 15.3316 58.432C15.3316 58.4533 15.2996 58.464 15.2356 58.464C15.1716 58.464 15.1076 58.4427 15.0436 58.4C14.9796 58.3573 14.9583 58.3253 14.9796 58.304C15.5343 57.6 15.8223 56.6293 15.8436 55.392L15.8756 54.624C15.9183 53.728 15.9503 52.7893 15.9716 51.808C15.993 50.8053 16.0036 49.8773 16.0036 49.024C16.025 48.1493 16.0356 47.4453 16.0356 46.912C16.0356 46.3573 16.0356 46.08 16.0356 46.08C16.0356 45.568 16.1103 45.12 16.2596 44.736C16.409 44.352 16.5903 44.0213 16.8036 43.744C16.441 44.0213 16.089 44.352 15.7476 44.736C15.4063 45.12 15.1183 45.5467 14.8836 46.016C14.5636 46.6773 14.201 47.5307 13.7956 48.576C13.3903 49.6213 12.921 50.7307 12.3876 51.904C11.8756 53.0773 11.2996 54.2293 10.6596 55.36C10.041 56.4693 9.34763 57.4293 8.57963 58.24C8.04629 58.816 7.36363 59.3067 6.53163 59.712C5.72096 60.1173 4.95296 60.32 4.22763 60.32ZM32.5181 60.096C32.3048 60.096 32.1235 60.0533 31.9741 59.968C31.8248 59.8827 31.7501 59.7227 31.7501 59.488C31.7501 59.1893 31.8248 58.848 31.9741 58.464C32.1235 58.08 32.2941 57.7067 32.4861 57.344C32.6781 56.96 32.8488 56.6507 32.9981 56.416C32.2515 57.2053 31.4728 57.952 30.6621 58.656C30.2568 58.9973 29.8088 59.3173 29.3181 59.616C28.8275 59.9147 28.3048 60.064 27.7501 60.064C27.5368 60.064 27.3875 60 27.3021 59.872C27.2168 59.7227 27.1741 59.552 27.1741 59.36C27.1741 59.2533 27.1848 59.1787 27.2061 59.136C27.3128 58.304 27.5795 57.44 28.0061 56.544C28.4328 55.648 28.9555 54.8053 29.5741 54.016C30.1928 53.2267 30.8221 52.5867 31.4621 52.096C32.1875 51.5413 32.9875 51.264 33.8621 51.264H37.5421C37.6488 51.264 37.7021 51.3067 37.7021 51.392C37.7021 51.5627 37.6061 51.648 37.4141 51.648C37.2008 51.648 36.9875 51.7867 36.7741 52.064C36.5608 52.32 36.4008 52.5333 36.2941 52.704C36.1448 52.9387 35.9101 53.3333 35.5901 53.888C35.2701 54.4427 34.9395 55.0507 34.5981 55.712C34.2781 56.352 34.0008 56.9493 33.7661 57.504C33.5315 58.0587 33.4141 58.464 33.4141 58.72C33.4141 59.0187 33.5635 59.168 33.8621 59.168C34.1821 59.168 34.5448 59.0187 34.9501 58.72C35.3555 58.4213 35.7608 58.0587 36.1661 57.632C36.5928 57.184 36.9768 56.7467 37.3181 56.32C37.6808 55.872 37.9688 55.52 38.1821 55.264C38.3101 55.392 38.2995 55.5733 38.1501 55.808C38.0221 56.0213 37.9048 56.192 37.7981 56.32C37.3715 56.8747 36.8808 57.4507 36.3261 58.048C35.7715 58.624 35.1635 59.1147 34.5021 59.52C33.8621 59.904 33.2008 60.096 32.5181 60.096ZM29.0621 58.976C29.3181 58.976 29.6701 58.7947 30.1181 58.432C30.5875 58.048 31.0888 57.5787 31.6221 57.024C32.1555 56.448 32.6568 55.8507 33.1261 55.232C33.5955 54.592 33.9795 54.016 34.2781 53.504C34.5981 52.9707 34.7581 52.5653 34.7581 52.288C34.7581 52.0533 34.6835 51.8933 34.5341 51.808C34.4061 51.7227 34.2355 51.68 34.0221 51.68C33.6808 51.68 33.3075 51.808 32.9021 52.064C32.5181 52.2987 32.2088 52.5333 31.9741 52.768C31.7181 53.0027 31.4088 53.376 31.0461 53.888C30.7048 54.3787 30.3635 54.9227 30.0221 55.52C29.6808 56.1173 29.3928 56.6933 29.1581 57.248C28.9235 57.8027 28.8061 58.2507 28.8061 58.592C28.8061 58.848 28.8915 58.976 29.0621 58.976ZM37.7644 60.48C37.679 60.48 37.679 60.384 37.7644 60.192C37.871 60 37.967 59.7867 38.0524 59.552C38.159 59.3173 38.2657 59.0613 38.3724 58.784C38.5857 58.272 38.8204 57.696 39.0764 57.056C39.3324 56.416 39.5777 55.7973 39.8124 55.2C40.047 54.5813 40.2497 54.0587 40.4204 53.632C40.6124 53.184 40.7404 52.896 40.8044 52.768C40.5057 53.088 40.143 53.4933 39.7164 53.984C39.311 54.4533 38.927 54.912 38.5644 55.36C38.2017 55.808 37.9244 56.16 37.7324 56.416C37.6684 56.5013 37.615 56.544 37.5724 56.544C37.5297 56.544 37.5084 56.4907 37.5084 56.384C37.5084 56.2133 37.5617 56.0533 37.6684 55.904C38.0737 55.392 38.5217 54.816 39.0124 54.176C39.5244 53.536 39.983 52.9493 40.3884 52.416C40.7937 51.8613 41.0497 51.4987 41.1564 51.328C41.391 51.2853 41.7324 51.2213 42.1804 51.136C42.6497 51.0507 42.9697 50.9333 43.1404 50.784C43.2044 50.72 43.2684 50.688 43.3324 50.688C43.375 50.688 43.3964 50.7307 43.3964 50.816C43.4177 50.88 43.3964 50.9547 43.3324 51.04C43.2044 51.1893 42.9804 51.5413 42.6604 52.096C42.3617 52.6293 42.031 53.2267 41.6684 53.888C41.327 54.5493 41.007 55.1467 40.7084 55.68C40.9644 55.3387 41.2417 55.008 41.5404 54.688C41.839 54.368 42.127 54.0587 42.4044 53.76C42.6604 53.504 43.0124 53.184 43.4604 52.8C43.9084 52.416 44.3777 52.064 44.8684 51.744C45.359 51.424 45.7857 51.2427 46.1484 51.2C46.2337 51.1787 46.3084 51.168 46.3724 51.168C46.4577 51.168 46.5217 51.168 46.5644 51.168C47.0337 51.168 47.2684 51.3387 47.2684 51.68C47.2684 51.936 47.1297 52.2773 46.8524 52.704C46.703 52.9387 46.4684 53.3333 46.1484 53.888C45.8497 54.4213 45.5404 55.008 45.2204 55.648C44.9217 56.2667 44.655 56.8533 44.4204 57.408C44.207 57.9413 44.1004 58.336 44.1004 58.592C44.1004 58.8907 44.2497 59.04 44.5484 59.04C44.911 59.04 45.3057 58.8587 45.7324 58.496C46.1804 58.1333 46.6604 57.6747 47.1724 57.12C47.6844 56.544 48.1964 55.936 48.7084 55.296C48.751 55.3387 48.7724 55.4133 48.7724 55.52C48.7724 55.6693 48.719 55.8187 48.6124 55.968C48.527 56.096 48.4417 56.2133 48.3564 56.32C48.143 56.5973 47.855 56.9493 47.4924 57.376C47.151 57.7813 46.799 58.1867 46.4364 58.592C46.0737 58.976 45.743 59.2853 45.4444 59.52C45.231 59.6693 44.9537 59.8293 44.6124 60C44.271 60.1707 43.9297 60.256 43.5884 60.256C43.2044 60.256 42.9377 60.16 42.7884 59.968C42.639 59.7547 42.5644 59.4987 42.5644 59.2C42.5644 58.8587 42.6284 58.496 42.7564 58.112C42.8844 57.728 43.023 57.3653 43.1724 57.024C43.343 56.6613 43.471 56.3947 43.5564 56.224C43.9404 55.4773 44.2924 54.7733 44.6124 54.112C44.9324 53.4507 45.1564 52.9813 45.2844 52.704C45.3484 52.576 45.3804 52.4693 45.3804 52.384C45.3804 52.2347 45.263 52.224 45.0284 52.352C44.7937 52.48 44.5057 52.672 44.1644 52.928C43.8444 53.184 43.5457 53.44 43.2684 53.696C42.991 53.9307 42.8097 54.0907 42.7244 54.176C41.935 55.008 41.2417 55.936 40.6444 56.96C40.0684 57.9627 39.5777 58.9973 39.1724 60.064C38.895 60.0853 38.6177 60.16 38.3404 60.288C38.063 60.416 37.871 60.48 37.7644 60.48ZM54.7909 47.776C54.4922 47.776 54.2789 47.68 54.1509 47.488C54.0655 47.3813 54.0229 47.2427 54.0229 47.072C54.0229 46.7307 54.1829 46.4533 54.5029 46.24C54.7375 46.112 54.9509 46.048 55.1429 46.048C55.4629 46.048 55.6869 46.144 55.8149 46.336C55.9002 46.4427 55.9429 46.5813 55.9429 46.752C55.9429 47.0933 55.7722 47.3707 55.4309 47.584C55.2389 47.712 55.0255 47.776 54.7909 47.776ZM49.2229 60.096C49.0095 60.096 48.8282 60.0533 48.6789 59.968C48.5509 59.8827 48.4869 59.7227 48.4869 59.488C48.4869 59.1893 48.5615 58.8373 48.7109 58.432C48.8815 58.0267 49.0629 57.6213 49.2549 57.216C49.4682 56.8107 49.6282 56.48 49.7349 56.224C49.8842 55.9253 50.0655 55.5413 50.2789 55.072C50.5135 54.5813 50.7269 54.1227 50.9189 53.696C51.1322 53.248 51.2815 52.9387 51.3669 52.768C51.0682 53.088 50.7055 53.4933 50.2789 53.984C49.8735 54.4533 49.4895 54.912 49.1269 55.36C48.7642 55.808 48.4869 56.16 48.2949 56.416C48.2309 56.5013 48.1775 56.544 48.1349 56.544C48.0922 56.544 48.0709 56.4907 48.0709 56.384C48.0709 56.2133 48.1242 56.0533 48.2309 55.904C48.6362 55.392 49.0842 54.816 49.5749 54.176C50.0869 53.536 50.5455 52.9493 50.9509 52.416C51.3562 51.8613 51.6122 51.4987 51.7189 51.328C51.9535 51.2853 52.2949 51.2213 52.7429 51.136C53.2122 51.0507 53.5322 50.9333 53.7029 50.784C53.7669 50.72 53.8309 50.688 53.8949 50.688C53.9375 50.688 53.9589 50.7307 53.9589 50.816C53.9802 50.88 53.9589 50.9547 53.8949 51.04C53.7669 51.1893 53.5429 51.552 53.2229 52.128C52.9029 52.704 52.5615 53.344 52.1989 54.048C51.8575 54.7307 51.5375 55.3493 51.2389 55.904C50.9402 56.48 50.6842 57.0347 50.4709 57.568C50.2575 58.1013 50.1509 58.4853 50.1509 58.72C50.1509 59.0187 50.3002 59.168 50.5989 59.168C50.8762 59.168 51.2282 58.9973 51.6549 58.656C52.1029 58.3147 52.5509 57.9093 52.9989 57.44C53.4469 56.9493 53.8415 56.5013 54.1829 56.096C54.2895 55.968 54.4175 55.8187 54.5669 55.648C54.7375 55.456 54.8442 55.3387 54.8869 55.296C54.9295 55.3387 54.9509 55.4133 54.9509 55.52C54.9295 55.6693 54.8762 55.8187 54.7909 55.968C54.7055 56.096 54.6202 56.2133 54.5349 56.32C54.0869 56.8747 53.5962 57.4507 53.0629 58.048C52.5295 58.624 51.9429 59.1147 51.3029 59.52C50.6629 59.904 49.9695 60.096 49.2229 60.096ZM55.6351 60.256C54.8458 60.256 54.2911 60.1067 53.9711 59.808C53.6511 59.5093 53.4911 59.1253 53.4911 58.656C53.4911 58.0373 53.6938 57.3547 54.0991 56.608C54.5045 55.84 54.8885 55.2 55.2511 54.688C55.6138 54.1973 56.0191 53.7387 56.4671 53.312C56.9365 52.864 57.4378 52.48 57.9711 52.16C58.3125 51.9467 58.7711 51.7227 59.3471 51.488C59.9445 51.232 60.4458 51.104 60.8511 51.104C61.3418 51.104 61.6831 51.2213 61.8751 51.456C62.0671 51.6693 62.1631 51.936 62.1631 52.256C62.1631 52.512 62.1205 52.7787 62.0351 53.056C61.9498 53.312 61.8538 53.5573 61.7471 53.792C61.6831 53.92 61.5871 54.016 61.4591 54.08C61.3311 54.1227 61.2671 54.1013 61.2671 54.016C61.2671 53.9093 61.2778 53.8133 61.2991 53.728C61.3205 53.6427 61.3311 53.5467 61.3311 53.44C61.3311 53.0347 61.2351 52.64 61.0431 52.256C60.8725 51.8507 60.6058 51.648 60.2431 51.648C59.8591 51.648 59.4431 51.7867 58.9951 52.064C58.5471 52.32 58.2378 52.544 58.0671 52.736C57.5125 53.312 56.9685 54.0267 56.4351 54.88C55.9231 55.7333 55.5498 56.544 55.3151 57.312C55.1658 57.76 55.0911 58.144 55.0911 58.464C55.0911 58.8267 55.1871 59.0827 55.3791 59.232C55.5711 59.3813 55.8058 59.456 56.0831 59.456C56.2965 59.456 56.5205 59.424 56.7551 59.36C57.0111 59.296 57.2778 59.2213 57.5551 59.136C58.1951 58.9227 58.8351 58.592 59.4751 58.144C60.1365 57.6747 60.7338 57.184 61.2671 56.672C61.8005 56.1387 62.2058 55.68 62.4831 55.296C62.5258 55.3387 62.5471 55.4027 62.5471 55.488C62.5471 55.5947 62.5045 55.7227 62.4191 55.872C62.3338 56 62.2698 56.1067 62.2271 56.192C61.7791 56.7893 61.1925 57.408 60.4671 58.048C59.7418 58.6667 58.9525 59.1893 58.0991 59.616C57.2671 60.0427 56.4458 60.256 55.6351 60.256ZM63.7081 60.096C63.4948 60.096 63.3135 60.0533 63.1641 59.968C63.0148 59.8827 62.9401 59.7227 62.9401 59.488C62.9401 59.1893 63.0148 58.8373 63.1641 58.432C63.3348 58.0267 63.5161 57.6213 63.7081 57.216C63.9001 56.8107 64.0601 56.48 64.1881 56.224C64.4441 55.7333 64.6895 55.2427 64.9241 54.752C65.1588 54.2613 65.3615 53.8453 65.5321 53.504C65.7028 53.184 65.7881 52.9707 65.7881 52.864C65.7881 52.6933 65.6601 52.6933 65.4041 52.864C65.1695 53.0347 64.9455 53.2053 64.7321 53.376C64.2628 53.824 63.7721 54.3573 63.2601 54.976C62.7481 55.5733 62.3535 56.0533 62.0761 56.416C62.0121 56.5013 61.9588 56.544 61.9161 56.544C61.8735 56.544 61.8521 56.4907 61.8521 56.384C61.8521 56.2133 61.9055 56.0533 62.0121 55.904C62.3108 55.4773 62.6628 55.008 63.0681 54.496C63.4735 53.984 63.8895 53.4933 64.3161 53.024C64.7215 52.5973 65.1375 52.1813 65.5641 51.776C65.9908 51.3707 66.5348 51.168 67.1961 51.168C67.6441 51.168 67.8681 51.3387 67.8681 51.68C67.8681 51.9787 67.7401 52.32 67.4841 52.704C67.3348 52.9387 67.1001 53.3333 66.7801 53.888C66.4601 54.4427 66.1295 55.0507 65.7881 55.712C65.4681 56.352 65.1908 56.9493 64.9561 57.504C64.7215 58.0587 64.6041 58.464 64.6041 58.72C64.6041 59.0187 64.7535 59.168 65.0521 59.168C65.2868 59.168 65.5748 59.0507 65.9161 58.816C66.2575 58.56 66.6095 58.2613 66.9721 57.92C67.6335 57.28 68.2308 56.5867 68.7641 55.84C69.3188 55.072 69.7881 54.336 70.1721 53.632C70.5775 52.928 70.8975 52.352 71.1321 51.904C71.1748 51.8187 71.2175 51.7227 71.2601 51.616C71.3241 51.488 71.4201 51.4133 71.5481 51.392C71.6761 51.3707 71.9535 51.36 72.3801 51.36C72.8068 51.36 73.2015 51.2747 73.5641 51.104H73.6281C73.6921 51.104 73.7241 51.136 73.7241 51.2C73.7241 51.3707 73.5855 51.4987 73.3081 51.584C73.0521 51.6693 72.7535 51.9253 72.4121 52.352C72.0921 52.7787 71.7721 53.3013 71.4521 53.92C71.1321 54.5173 70.8441 55.136 70.5881 55.776C70.3321 56.416 70.1401 57.0027 70.0121 57.536C69.8841 58.0693 69.8521 58.464 69.9161 58.72C70.0015 59.0187 70.1508 59.168 70.3641 59.168C70.6415 59.168 71.0255 58.9973 71.5161 58.656C72.0281 58.3147 72.5508 57.9093 73.0841 57.44C73.6175 56.9493 74.0548 56.5013 74.3961 56.096C74.5455 55.9253 74.6841 55.7547 74.8121 55.584C74.9401 55.4133 75.0255 55.3067 75.0681 55.264C75.0895 55.2853 75.1108 55.328 75.1321 55.392C75.1535 55.4347 75.1641 55.4773 75.1641 55.52C75.1428 55.6693 75.0895 55.8187 75.0041 55.968C74.9188 56.096 74.8228 56.2133 74.7161 56.32C74.3108 56.8533 73.8201 57.4187 73.2441 58.016C72.6895 58.592 72.0815 59.0827 71.4201 59.488C70.7801 59.8933 70.1188 60.096 69.4361 60.096C69.2228 60.096 68.9775 60.0427 68.7001 59.936C68.4441 59.8293 68.3161 59.5947 68.3161 59.232C68.3161 58.9547 68.3908 58.5813 68.5401 58.112C68.6895 57.6213 68.8495 57.1413 69.0201 56.672C69.2121 56.1813 69.3721 55.8187 69.5001 55.584C69.2228 55.9893 68.8815 56.448 68.4761 56.96C68.0921 57.4507 67.6975 57.888 67.2921 58.272C66.7588 58.784 66.1828 59.2213 65.5641 59.584C64.9668 59.9253 64.3481 60.096 63.7081 60.096ZM74.6706 60.448C74.5853 60.448 74.5853 60.3627 74.6706 60.192C74.7773 60 74.8733 59.7867 74.9586 59.552C75.0653 59.3173 75.172 59.0613 75.2786 58.784C75.492 58.272 75.7266 57.696 75.9826 57.056C76.2386 56.416 76.484 55.7973 76.7186 55.2C76.9533 54.5813 77.156 54.0587 77.3266 53.632C77.5186 53.184 77.6466 52.896 77.7106 52.768C77.412 53.088 77.0493 53.4933 76.6226 53.984C76.2173 54.4533 75.8333 54.912 75.4706 55.36C75.108 55.808 74.8306 56.16 74.6386 56.416C74.5746 56.5013 74.5213 56.544 74.4786 56.544C74.436 56.544 74.4146 56.4907 74.4146 56.384C74.4146 56.2133 74.468 56.0533 74.5746 55.904C74.98 55.392 75.428 54.816 75.9186 54.176C76.4306 53.536 76.8893 52.9493 77.2946 52.416C77.7 51.8613 77.956 51.4987 78.0626 51.328C78.2973 51.2853 78.6386 51.2213 79.0866 51.136C79.556 51.0507 79.876 50.9333 80.0466 50.784C80.1106 50.72 80.1746 50.688 80.2386 50.688C80.2813 50.688 80.3026 50.7307 80.3026 50.816C80.324 50.88 80.3026 50.9547 80.2386 51.04C80.1106 51.168 79.9186 51.4453 79.6626 51.872C79.428 52.2987 79.1613 52.7893 78.8626 53.344C78.564 53.8987 78.276 54.432 77.9986 54.944C78.212 54.624 78.4893 54.2507 78.8306 53.824C79.1933 53.376 79.588 52.9493 80.0146 52.544C80.4413 52.1173 80.868 51.7653 81.2946 51.488C81.7426 51.2107 82.1586 51.072 82.5426 51.072C82.82 51.072 83.0546 51.136 83.2466 51.264C83.4386 51.3707 83.588 51.5733 83.6946 51.872C83.7586 52.0213 83.7906 52.192 83.7906 52.384C83.7906 52.7467 83.6946 53.0987 83.5026 53.44C83.332 53.76 83.204 54.0053 83.1186 54.176C83.0973 54.24 83.0226 54.304 82.8946 54.368C82.7666 54.4107 82.7133 54.3893 82.7346 54.304C82.756 54.1973 82.7666 54.0907 82.7666 53.984C82.788 53.8773 82.7986 53.76 82.7986 53.632C82.7986 53.2693 82.724 52.9387 82.5746 52.64C82.4466 52.3413 82.2013 52.192 81.8386 52.192C81.4973 52.192 81.0813 52.4053 80.5906 52.832C80.1 53.2587 79.6093 53.7493 79.1186 54.304C78.5 55.0293 78.0093 55.7227 77.6466 56.384C77.284 57.024 76.9853 57.6533 76.7506 58.272C76.6226 58.6133 76.4946 58.9547 76.3666 59.296C76.2386 59.616 76.1426 59.872 76.0786 60.064C75.8013 60.0853 75.524 60.1493 75.2466 60.256C74.9693 60.384 74.7773 60.448 74.6706 60.448ZM85.0214 60.256C84.1467 60.256 83.5387 60.0853 83.1974 59.744C82.856 59.4027 82.6854 58.9867 82.6854 58.496C82.6854 57.8773 82.8454 57.216 83.1654 56.512C83.5067 55.808 83.8267 55.2107 84.1254 54.72C84.4667 54.208 84.9254 53.6747 85.5014 53.12C86.0774 52.5653 86.7067 52.096 87.3894 51.712C88.072 51.328 88.7334 51.136 89.3734 51.136C89.928 51.136 90.312 51.2747 90.5254 51.552C90.7387 51.808 90.8454 52.1173 90.8454 52.48C90.8454 53.1413 90.6427 53.6853 90.2374 54.112C89.8534 54.5387 89.3734 54.8907 88.7974 55.168C88.2214 55.424 87.6667 55.6373 87.1334 55.808C86.8134 55.8933 86.44 55.9787 86.0134 56.064C85.5867 56.1493 85.1814 56.192 84.7974 56.192C84.648 56.576 84.5307 56.9493 84.4454 57.312C84.36 57.6747 84.3174 58.0053 84.3174 58.304C84.3174 58.6667 84.4027 58.9653 84.5734 59.2C84.7654 59.4347 85.0747 59.552 85.5014 59.552C85.672 59.552 85.8747 59.5307 86.1094 59.488C86.344 59.4453 86.6 59.3813 86.8774 59.296C87.5174 59.0827 88.1467 58.7413 88.7654 58.272C89.384 57.8027 89.9494 57.3013 90.4614 56.768C90.9947 56.2133 91.4 55.7547 91.6774 55.392C91.7414 55.456 91.7734 55.5307 91.7734 55.616C91.7734 55.7227 91.6987 55.8933 91.5494 56.128C91.1227 56.7253 90.568 57.344 89.8854 57.984C89.2027 58.624 88.4454 59.168 87.6134 59.616C86.7814 60.0427 85.9174 60.256 85.0214 60.256ZM85.0534 55.552C85.3307 55.5733 85.64 55.5733 85.9814 55.552C86.344 55.5093 86.696 55.4347 87.0374 55.328C87.912 55.072 88.5414 54.6667 88.9254 54.112C89.3307 53.536 89.5334 53.024 89.5334 52.576C89.5334 52.32 89.48 52.1067 89.3734 51.936C89.2667 51.7653 89.096 51.68 88.8614 51.68C88.2427 51.68 87.688 51.9147 87.1974 52.384C86.7067 52.832 86.28 53.3547 85.9174 53.952C85.5547 54.5493 85.2667 55.0827 85.0534 55.552ZM116.348 63.552C115.73 63.552 115.09 63.328 114.428 62.88C113.788 62.4533 113.116 61.7493 112.412 60.768C112.135 60.3627 111.836 59.904 111.516 59.392C111.218 58.88 110.919 58.3573 110.62 57.824C110.279 58.1653 109.927 58.496 109.564 58.816C109.202 59.1147 108.764 59.424 108.252 59.744C107.378 60.2987 106.535 60.6933 105.724 60.928C104.914 61.184 104.146 61.312 103.42 61.312C102.674 61.312 101.991 61.184 101.372 60.928C100.775 60.672 100.284 60.3307 99.9004 59.904C99.3244 59.264 99.0364 58.5173 99.0364 57.664C99.0364 56.8747 99.239 56.1493 99.6444 55.488C100.071 54.8267 100.562 54.2507 101.116 53.76C101.991 52.992 102.951 52.3413 103.996 51.808C105.042 51.2533 106.055 50.688 107.036 50.112L107.068 50.08C106.834 49.3333 106.716 48.6187 106.716 47.936C106.716 47.744 106.727 47.552 106.748 47.36C106.791 47.1467 106.823 46.944 106.844 46.752C107.015 45.984 107.346 45.4293 107.836 45.088C108.348 44.7253 108.86 44.544 109.372 44.544C109.863 44.544 110.279 44.6827 110.62 44.96C110.983 45.2373 111.164 45.6213 111.164 46.112C111.164 46.56 110.994 47.0187 110.652 47.488C110.311 47.9573 109.906 48.3947 109.436 48.8C108.988 49.2053 108.562 49.5467 108.156 49.824C108.327 50.2293 108.562 50.7627 108.86 51.424C109.18 52.064 109.511 52.7253 109.852 53.408H114.14C114.439 53.408 114.738 53.408 115.036 53.408C115.356 53.3867 115.591 53.312 115.74 53.184C115.783 53.1413 115.826 53.1307 115.868 53.152C115.911 53.1733 115.911 53.2267 115.868 53.312L115.292 54.176C115.228 54.3253 115.1 54.4 114.908 54.4C114.844 54.4 114.77 54.4 114.684 54.4C114.599 54.4 114.492 54.3893 114.364 54.368C114.108 54.3253 113.831 54.2933 113.532 54.272C113.255 54.2293 112.967 54.1973 112.668 54.176C112.583 54.56 112.444 54.976 112.252 55.424C112.06 55.872 111.847 56.2773 111.612 56.64C111.996 57.3013 112.38 57.9413 112.764 58.56C113.148 59.1573 113.5 59.6693 113.82 60.096C114.46 60.9067 115.058 61.4827 115.612 61.824C116.167 62.1653 116.679 62.336 117.148 62.336C117.874 62.336 118.524 62.0587 119.1 61.504C119.698 60.9707 120.231 60.3947 120.7 59.776C120.764 59.6907 120.828 59.648 120.892 59.648C120.999 59.648 121.052 59.712 121.052 59.84C121.052 59.968 121.01 60.0747 120.924 60.16C120.178 61.2053 119.431 62.0267 118.684 62.624C117.938 63.2427 117.159 63.552 116.348 63.552ZM108.028 49.472C108.647 49.0453 109.202 48.5653 109.692 48.032C110.204 47.4773 110.535 46.9227 110.684 46.368C110.706 46.304 110.716 46.24 110.716 46.176C110.716 46.112 110.716 46.0587 110.716 46.016C110.716 45.6533 110.599 45.3867 110.364 45.216C110.13 45.024 109.863 44.928 109.564 44.928C109.223 44.928 108.871 45.0667 108.508 45.344C108.167 45.6 107.922 46.0373 107.772 46.656C107.751 46.784 107.73 46.912 107.708 47.04C107.708 47.168 107.708 47.296 107.708 47.424C107.708 47.8293 107.74 48.224 107.804 48.608C107.89 48.9707 107.964 49.2587 108.028 49.472ZM104.668 59.744C105.842 59.744 106.919 59.552 107.9 59.168C108.348 58.9973 108.775 58.7413 109.18 58.4C109.607 58.0587 109.991 57.6853 110.332 57.28C110.14 56.9173 109.895 56.448 109.596 55.872C109.298 55.296 108.978 54.656 108.636 53.952C108.21 53.9733 107.719 54.048 107.164 54.176C106.61 54.304 106.13 54.5173 105.724 54.816C105.34 55.1147 105.17 55.5413 105.212 56.096C105.212 56.2453 105.244 56.4373 105.308 56.672C105.394 56.8853 105.447 57.024 105.468 57.088L105.212 57.28C105.063 57.0027 104.86 56.6613 104.604 56.256C104.37 55.8507 104.242 55.552 104.22 55.36C104.199 55.168 104.199 54.9333 104.22 54.656C104.263 54.3787 104.412 54.1333 104.668 53.92C104.946 53.6853 105.33 53.536 105.82 53.472C106.311 53.3867 106.823 53.344 107.356 53.344C107.527 53.344 107.698 53.3547 107.868 53.376C108.039 53.376 108.199 53.376 108.348 53.376C108.156 52.9067 107.954 52.4267 107.74 51.936C107.548 51.4453 107.356 50.9547 107.164 50.464L106.876 50.656C106.044 51.168 105.17 51.7333 104.252 52.352C103.356 52.9707 102.599 53.664 101.98 54.432C101.703 54.7733 101.458 55.1893 101.244 55.68C101.052 56.1707 100.956 56.6613 100.956 57.152C100.956 57.4293 100.999 57.7173 101.084 58.016C101.191 58.2933 101.351 58.5493 101.564 58.784C101.927 59.1253 102.375 59.3707 102.908 59.52C103.463 59.6693 104.05 59.744 104.668 59.744ZM111.26 56.032C111.452 55.7333 111.634 55.4133 111.804 55.072C111.975 54.7093 112.114 54.3893 112.22 54.112C111.879 54.0693 111.538 54.0373 111.196 54.016C110.855 53.9947 110.503 53.9733 110.14 53.952C110.375 54.3573 110.578 54.7413 110.748 55.104C110.94 55.4667 111.111 55.776 111.26 56.032ZM126.214 60.608C126.064 60.608 125.947 60.5653 125.862 60.48C125.776 60.416 125.776 60.3627 125.862 60.32C126.331 60.2347 126.736 60.064 127.078 59.808C127.419 59.5307 127.696 59.1893 127.91 58.784C128.358 58.0373 128.795 57.2907 129.222 56.544C129.67 55.776 130.096 55.008 130.502 54.24C130.992 53.3013 131.494 52.3627 132.006 51.424C132.518 50.464 133.03 49.5147 133.542 48.576C134.032 47.7013 134.47 46.8587 134.854 46.048C135.238 45.2373 135.526 44.6507 135.718 44.288C135.867 44.0107 136.123 43.7653 136.486 43.552C136.87 43.3173 137.243 43.136 137.606 43.008C137.478 43.008 137.35 43.008 137.222 43.008C137.094 42.9867 136.955 42.976 136.806 42.976C136.144 42.976 135.419 43.0187 134.63 43.104C133.862 43.168 133.104 43.2747 132.358 43.424C131.632 43.5733 130.992 43.776 130.438 44.032C129.883 44.288 129.51 44.5973 129.318 44.96C129.232 45.152 129.158 45.344 129.094 45.536C129.03 45.728 128.998 45.92 128.998 46.112C128.998 46.6027 129.168 46.9547 129.51 47.168C129.531 47.168 129.542 47.1893 129.542 47.232C129.542 47.2747 129.499 47.3173 129.414 47.36C129.35 47.4027 129.296 47.4133 129.254 47.392C129.04 47.2853 128.795 47.0293 128.518 46.624C128.262 46.1973 128.091 45.8453 128.006 45.568C127.942 45.312 127.91 45.0773 127.91 44.864C127.91 44.3093 128.091 43.8827 128.454 43.584C128.816 43.264 129.275 43.04 129.83 42.912C130.384 42.7627 130.95 42.6773 131.526 42.656C132.123 42.6133 132.646 42.592 133.094 42.592C133.776 42.592 134.587 42.592 135.526 42.592C136.464 42.5707 137.328 42.56 138.118 42.56C138.31 42.56 138.523 42.56 138.758 42.56C138.992 42.5387 139.238 42.528 139.494 42.528C140.07 42.528 140.667 42.56 141.286 42.624C141.904 42.688 142.47 42.8267 142.982 43.04C143.494 43.2533 143.888 43.584 144.166 44.032C144.592 44.6933 144.806 45.3973 144.806 46.144C144.806 46.976 144.56 47.7653 144.07 48.512C143.6 49.2373 143.003 49.8773 142.278 50.432C141.552 50.9867 140.816 51.4133 140.07 51.712C139.366 51.9893 138.576 52.1813 137.702 52.288C136.848 52.3947 136.08 52.448 135.398 52.448C135.184 52.448 134.971 52.448 134.758 52.448C134.566 52.4267 134.395 52.4053 134.246 52.384C134.203 52.384 134.182 52.3627 134.182 52.32C134.182 52.2347 134.267 52.1173 134.438 51.968C134.608 51.7973 134.747 51.7227 134.854 51.744C135.024 51.7653 135.195 51.776 135.366 51.776C135.536 51.776 135.718 51.776 135.91 51.776C136.72 51.776 137.584 51.6693 138.502 51.456C139.419 51.2427 140.262 50.8373 141.03 50.24C141.819 49.6213 142.416 48.7253 142.822 47.552C142.928 47.296 142.992 47.04 143.014 46.784C143.056 46.5067 143.078 46.24 143.078 45.984C143.078 45.2587 142.896 44.6187 142.534 44.064C142.171 43.5093 141.648 43.1893 140.966 43.104C140.88 43.0827 140.784 43.072 140.678 43.072C140.571 43.072 140.464 43.072 140.358 43.072C139.952 43.072 139.504 43.1253 139.014 43.232C138.544 43.3387 138.192 43.5413 137.958 43.84C137.424 44.544 136.912 45.344 136.422 46.24C135.931 47.1147 135.462 48.0107 135.014 48.928C134.566 49.824 134.139 50.6667 133.734 51.456C133.627 51.6693 133.424 52.0533 133.126 52.608C132.827 53.1413 132.496 53.76 132.134 54.464C131.771 55.1467 131.43 55.8293 131.11 56.512C130.79 57.1947 130.534 57.8027 130.342 58.336C130.171 58.8693 130.128 59.232 130.214 59.424C130.235 59.4453 130.246 59.4773 130.246 59.52C130.246 59.584 130.214 59.616 130.15 59.616C129.979 59.616 129.808 59.5733 129.638 59.488C129.467 59.4027 129.264 59.36 129.03 59.36C128.816 59.36 128.603 59.4133 128.39 59.52C128.176 59.6053 127.899 59.7653 127.558 60C127.216 60.2347 126.832 60.4267 126.406 60.576C126.363 60.5973 126.299 60.608 126.214 60.608ZM145.99 60.256C145.115 60.256 144.507 60.0853 144.166 59.744C143.825 59.4027 143.654 58.9867 143.654 58.496C143.654 57.8773 143.814 57.216 144.134 56.512C144.475 55.808 144.795 55.2107 145.094 54.72C145.435 54.208 145.894 53.6747 146.47 53.12C147.046 52.5653 147.675 52.096 148.358 51.712C149.041 51.328 149.702 51.136 150.342 51.136C150.897 51.136 151.281 51.2747 151.494 51.552C151.707 51.808 151.814 52.1173 151.814 52.48C151.814 53.1413 151.611 53.6853 151.206 54.112C150.822 54.5387 150.342 54.8907 149.766 55.168C149.19 55.424 148.635 55.6373 148.102 55.808C147.782 55.8933 147.409 55.9787 146.982 56.064C146.555 56.1493 146.15 56.192 145.766 56.192C145.617 56.576 145.499 56.9493 145.414 57.312C145.329 57.6747 145.286 58.0053 145.286 58.304C145.286 58.6667 145.371 58.9653 145.542 59.2C145.734 59.4347 146.043 59.552 146.47 59.552C146.641 59.552 146.843 59.5307 147.078 59.488C147.313 59.4453 147.569 59.3813 147.846 59.296C148.486 59.0827 149.115 58.7413 149.734 58.272C150.353 57.8027 150.918 57.3013 151.43 56.768C151.963 56.2133 152.369 55.7547 152.646 55.392C152.71 55.456 152.742 55.5307 152.742 55.616C152.742 55.7227 152.667 55.8933 152.518 56.128C152.091 56.7253 151.537 57.344 150.854 57.984C150.171 58.624 149.414 59.168 148.582 59.616C147.75 60.0427 146.886 60.256 145.99 60.256ZM146.022 55.552C146.299 55.5733 146.609 55.5733 146.95 55.552C147.313 55.5093 147.665 55.4347 148.006 55.328C148.881 55.072 149.51 54.6667 149.894 54.112C150.299 53.536 150.502 53.024 150.502 52.576C150.502 52.32 150.449 52.1067 150.342 51.936C150.235 51.7653 150.065 51.68 149.83 51.68C149.211 51.68 148.657 51.9147 148.166 52.384C147.675 52.832 147.249 53.3547 146.886 53.952C146.523 54.5493 146.235 55.0827 146.022 55.552ZM156.487 60.096C156.274 60.096 156.092 60.0533 155.943 59.968C155.794 59.8827 155.719 59.7227 155.719 59.488C155.719 59.1893 155.794 58.848 155.943 58.464C156.092 58.08 156.263 57.7067 156.455 57.344C156.647 56.96 156.818 56.6507 156.967 56.416C156.22 57.2053 155.442 57.952 154.631 58.656C154.226 58.9973 153.778 59.3173 153.287 59.616C152.796 59.9147 152.274 60.064 151.719 60.064C151.506 60.064 151.356 60 151.271 59.872C151.186 59.7227 151.143 59.552 151.143 59.36C151.143 59.2533 151.154 59.1787 151.175 59.136C151.282 58.304 151.548 57.44 151.975 56.544C152.402 55.648 152.924 54.8053 153.543 54.016C154.162 53.2267 154.791 52.5867 155.431 52.096C155.922 51.7333 156.391 51.5093 156.839 51.424C157.287 51.3173 157.778 51.264 158.311 51.264H159.367C159.708 50.688 160.06 50.048 160.423 49.344C160.807 48.6187 161.18 47.904 161.543 47.2C161.927 46.496 162.279 45.8773 162.599 45.344C163.474 43.8507 164.434 42.656 165.479 41.76C166.546 40.864 167.73 40.416 169.031 40.416C169.308 40.416 169.564 40.5013 169.799 40.672C170.034 40.8213 170.14 41.056 170.119 41.376L170.055 42.528C170.055 42.5493 170.034 42.5813 169.991 42.624C169.948 42.6453 169.916 42.656 169.895 42.656C169.874 42.656 169.842 42.6347 169.799 42.592C169.735 42.208 169.543 41.92 169.223 41.728C168.903 41.5147 168.508 41.408 168.039 41.408C167.89 41.408 167.719 41.4187 167.527 41.44C167.356 41.4613 167.186 41.504 167.015 41.568C166.418 41.7813 165.852 42.2187 165.319 42.88C164.786 43.52 164.21 44.3733 163.591 45.44C163.378 45.8453 163.1 46.3787 162.759 47.04C162.418 47.68 162.055 48.3733 161.671 49.12C161.308 49.8667 160.956 50.592 160.615 51.296C160.295 52 160.018 52.5973 159.783 53.088C159.676 53.344 159.495 53.7387 159.239 54.272C158.983 54.784 158.706 55.3493 158.407 55.968C158.13 56.5653 157.884 57.12 157.671 57.632C157.479 58.144 157.383 58.5067 157.383 58.72C157.383 59.0187 157.511 59.168 157.767 59.168C158.023 59.168 158.364 59.0187 158.791 58.72C159.218 58.4 159.655 58.016 160.103 57.568C160.572 57.0987 160.988 56.6507 161.351 56.224C161.735 55.7973 162.002 55.4773 162.151 55.264C162.215 55.328 162.247 55.4027 162.247 55.488C162.247 55.6373 162.183 55.7867 162.055 55.936C161.948 56.0853 161.852 56.2133 161.767 56.32C161.383 56.832 160.903 57.3867 160.327 57.984C159.772 58.56 159.164 59.0613 158.503 59.488C157.842 59.8933 157.17 60.096 156.487 60.096ZM153.031 58.976C153.287 58.976 153.639 58.7947 154.087 58.432C154.556 58.048 155.058 57.5787 155.591 57.024C156.124 56.448 156.626 55.8507 157.095 55.232C157.564 54.592 157.948 54.016 158.247 53.504C158.567 52.9707 158.727 52.5653 158.727 52.288C158.727 52.0533 158.652 51.8933 158.503 51.808C158.375 51.7227 158.204 51.68 157.991 51.68C157.65 51.68 157.276 51.808 156.871 52.064C156.487 52.2987 156.178 52.5333 155.943 52.768C155.687 53.0027 155.378 53.376 155.015 53.888C154.674 54.3787 154.332 54.9227 153.991 55.52C153.65 56.1173 153.362 56.6933 153.127 57.248C152.892 57.8027 152.775 58.2507 152.775 58.592C152.775 58.848 152.86 58.976 153.031 58.976ZM168.197 47.776C167.898 47.776 167.685 47.68 167.557 47.488C167.472 47.3813 167.429 47.2427 167.429 47.072C167.429 46.7307 167.589 46.4533 167.909 46.24C168.144 46.112 168.357 46.048 168.549 46.048C168.869 46.048 169.093 46.144 169.221 46.336C169.306 46.4427 169.349 46.5813 169.349 46.752C169.349 47.0933 169.178 47.3707 168.837 47.584C168.645 47.712 168.432 47.776 168.197 47.776ZM162.629 60.096C162.416 60.096 162.234 60.0533 162.085 59.968C161.957 59.8827 161.893 59.7227 161.893 59.488C161.893 59.1893 161.968 58.8373 162.117 58.432C162.288 58.0267 162.469 57.6213 162.661 57.216C162.874 56.8107 163.034 56.48 163.141 56.224C163.29 55.9253 163.472 55.5413 163.685 55.072C163.92 54.5813 164.133 54.1227 164.325 53.696C164.538 53.248 164.688 52.9387 164.773 52.768C164.474 53.088 164.112 53.4933 163.685 53.984C163.28 54.4533 162.896 54.912 162.533 55.36C162.17 55.808 161.893 56.16 161.701 56.416C161.637 56.5013 161.584 56.544 161.541 56.544C161.498 56.544 161.477 56.4907 161.477 56.384C161.477 56.2133 161.53 56.0533 161.637 55.904C162.042 55.392 162.49 54.816 162.981 54.176C163.493 53.536 163.952 52.9493 164.357 52.416C164.762 51.8613 165.018 51.4987 165.125 51.328C165.36 51.2853 165.701 51.2213 166.149 51.136C166.618 51.0507 166.938 50.9333 167.109 50.784C167.173 50.72 167.237 50.688 167.301 50.688C167.344 50.688 167.365 50.7307 167.365 50.816C167.386 50.88 167.365 50.9547 167.301 51.04C167.173 51.1893 166.949 51.552 166.629 52.128C166.309 52.704 165.968 53.344 165.605 54.048C165.264 54.7307 164.944 55.3493 164.645 55.904C164.346 56.48 164.09 57.0347 163.877 57.568C163.664 58.1013 163.557 58.4853 163.557 58.72C163.557 59.0187 163.706 59.168 164.005 59.168C164.282 59.168 164.634 58.9973 165.061 58.656C165.509 58.3147 165.957 57.9093 166.405 57.44C166.853 56.9493 167.248 56.5013 167.589 56.096C167.696 55.968 167.824 55.8187 167.973 55.648C168.144 55.456 168.25 55.3387 168.293 55.296C168.336 55.3387 168.357 55.4133 168.357 55.52C168.336 55.6693 168.282 55.8187 168.197 55.968C168.112 56.096 168.026 56.2133 167.941 56.32C167.493 56.8747 167.002 57.4507 166.469 58.048C165.936 58.624 165.349 59.1147 164.709 59.52C164.069 59.904 163.376 60.096 162.629 60.096ZM169.041 60.256C168.252 60.256 167.697 60.1067 167.377 59.808C167.057 59.5093 166.897 59.1253 166.897 58.656C166.897 58.0373 167.1 57.3547 167.505 56.608C167.911 55.84 168.295 55.2 168.657 54.688C169.02 54.1973 169.425 53.7387 169.873 53.312C170.343 52.864 170.844 52.48 171.377 52.16C171.719 51.9467 172.177 51.7227 172.753 51.488C173.351 51.232 173.852 51.104 174.257 51.104C174.748 51.104 175.089 51.2213 175.281 51.456C175.473 51.6693 175.569 51.936 175.569 52.256C175.569 52.512 175.527 52.7787 175.441 53.056C175.356 53.312 175.26 53.5573 175.153 53.792C175.089 53.92 174.993 54.016 174.865 54.08C174.737 54.1227 174.673 54.1013 174.673 54.016C174.673 53.9093 174.684 53.8133 174.705 53.728C174.727 53.6427 174.737 53.5467 174.737 53.44C174.737 53.0347 174.641 52.64 174.449 52.256C174.279 51.8507 174.012 51.648 173.649 51.648C173.265 51.648 172.849 51.7867 172.401 52.064C171.953 52.32 171.644 52.544 171.473 52.736C170.919 53.312 170.375 54.0267 169.841 54.88C169.329 55.7333 168.956 56.544 168.721 57.312C168.572 57.76 168.497 58.144 168.497 58.464C168.497 58.8267 168.593 59.0827 168.785 59.232C168.977 59.3813 169.212 59.456 169.489 59.456C169.703 59.456 169.927 59.424 170.161 59.36C170.417 59.296 170.684 59.2213 170.961 59.136C171.601 58.9227 172.241 58.592 172.881 58.144C173.543 57.6747 174.14 57.184 174.673 56.672C175.207 56.1387 175.612 55.68 175.889 55.296C175.932 55.3387 175.953 55.4027 175.953 55.488C175.953 55.5947 175.911 55.7227 175.825 55.872C175.74 56 175.676 56.1067 175.633 56.192C175.185 56.7893 174.599 57.408 173.873 58.048C173.148 58.6667 172.359 59.1893 171.505 59.616C170.673 60.0427 169.852 60.256 169.041 60.256ZM177.114 60.096C176.901 60.096 176.72 60.0533 176.57 59.968C176.421 59.8827 176.346 59.7227 176.346 59.488C176.346 59.1893 176.421 58.8373 176.57 58.432C176.741 58.0267 176.922 57.6213 177.114 57.216C177.306 56.8107 177.466 56.48 177.594 56.224C177.85 55.7333 178.096 55.2427 178.33 54.752C178.565 54.2613 178.768 53.8453 178.938 53.504C179.109 53.184 179.194 52.9707 179.194 52.864C179.194 52.6933 179.066 52.6933 178.81 52.864C178.576 53.0347 178.352 53.2053 178.138 53.376C177.669 53.824 177.178 54.3573 176.666 54.976C176.154 55.5733 175.76 56.0533 175.482 56.416C175.418 56.5013 175.365 56.544 175.322 56.544C175.28 56.544 175.258 56.4907 175.258 56.384C175.258 56.2133 175.312 56.0533 175.418 55.904C175.717 55.4773 176.069 55.008 176.474 54.496C176.88 53.984 177.296 53.4933 177.722 53.024C178.128 52.5973 178.544 52.1813 178.97 51.776C179.397 51.3707 179.941 51.168 180.602 51.168C181.05 51.168 181.274 51.3387 181.274 51.68C181.274 51.9787 181.146 52.32 180.89 52.704C180.741 52.9387 180.506 53.3333 180.186 53.888C179.866 54.4427 179.536 55.0507 179.194 55.712C178.874 56.352 178.597 56.9493 178.362 57.504C178.128 58.0587 178.01 58.464 178.01 58.72C178.01 59.0187 178.16 59.168 178.458 59.168C178.693 59.168 178.981 59.0507 179.322 58.816C179.664 58.56 180.016 58.2613 180.378 57.92C181.04 57.28 181.637 56.5867 182.17 55.84C182.725 55.072 183.194 54.336 183.578 53.632C183.984 52.928 184.304 52.352 184.538 51.904C184.581 51.8187 184.624 51.7227 184.666 51.616C184.73 51.488 184.826 51.4133 184.954 51.392C185.082 51.3707 185.36 51.36 185.786 51.36C186.213 51.36 186.608 51.2747 186.97 51.104H187.034C187.098 51.104 187.13 51.136 187.13 51.2C187.13 51.3707 186.992 51.4987 186.714 51.584C186.458 51.6693 186.16 51.9253 185.818 52.352C185.498 52.7787 185.178 53.3013 184.858 53.92C184.538 54.5173 184.25 55.136 183.994 55.776C183.738 56.416 183.546 57.0027 183.418 57.536C183.29 58.0693 183.258 58.464 183.322 58.72C183.408 59.0187 183.557 59.168 183.77 59.168C184.048 59.168 184.432 58.9973 184.922 58.656C185.434 58.3147 185.957 57.9093 186.49 57.44C187.024 56.9493 187.461 56.5013 187.802 56.096C187.952 55.9253 188.09 55.7547 188.218 55.584C188.346 55.4133 188.432 55.3067 188.474 55.264C188.496 55.2853 188.517 55.328 188.538 55.392C188.56 55.4347 188.57 55.4773 188.57 55.52C188.549 55.6693 188.496 55.8187 188.41 55.968C188.325 56.096 188.229 56.2133 188.122 56.32C187.717 56.8533 187.226 57.4187 186.65 58.016C186.096 58.592 185.488 59.0827 184.826 59.488C184.186 59.8933 183.525 60.096 182.842 60.096C182.629 60.096 182.384 60.0427 182.106 59.936C181.85 59.8293 181.722 59.5947 181.722 59.232C181.722 58.9547 181.797 58.5813 181.946 58.112C182.096 57.6213 182.256 57.1413 182.426 56.672C182.618 56.1813 182.778 55.8187 182.906 55.584C182.629 55.9893 182.288 56.448 181.882 56.96C181.498 57.4507 181.104 57.888 180.698 58.272C180.165 58.784 179.589 59.2213 178.97 59.584C178.373 59.9253 177.754 60.096 177.114 60.096ZM188.077 60.448C187.992 60.448 187.992 60.3627 188.077 60.192C188.184 60 188.28 59.7867 188.365 59.552C188.472 59.3173 188.578 59.0613 188.685 58.784C188.898 58.272 189.133 57.696 189.389 57.056C189.645 56.416 189.89 55.7973 190.125 55.2C190.36 54.5813 190.562 54.0587 190.733 53.632C190.925 53.184 191.053 52.896 191.117 52.768C190.818 53.088 190.456 53.4933 190.029 53.984C189.624 54.4533 189.24 54.912 188.877 55.36C188.514 55.808 188.237 56.16 188.045 56.416C187.981 56.5013 187.928 56.544 187.885 56.544C187.842 56.544 187.821 56.4907 187.821 56.384C187.821 56.2133 187.874 56.0533 187.981 55.904C188.386 55.392 188.834 54.816 189.325 54.176C189.837 53.536 190.296 52.9493 190.701 52.416C191.106 51.8613 191.362 51.4987 191.469 51.328C191.704 51.2853 192.045 51.2213 192.493 51.136C192.962 51.0507 193.282 50.9333 193.453 50.784C193.517 50.72 193.581 50.688 193.645 50.688C193.688 50.688 193.709 50.7307 193.709 50.816C193.73 50.88 193.709 50.9547 193.645 51.04C193.517 51.168 193.325 51.4453 193.069 51.872C192.834 52.2987 192.568 52.7893 192.269 53.344C191.97 53.8987 191.682 54.432 191.405 54.944C191.618 54.624 191.896 54.2507 192.237 53.824C192.6 53.376 192.994 52.9493 193.421 52.544C193.848 52.1173 194.274 51.7653 194.701 51.488C195.149 51.2107 195.565 51.072 195.949 51.072C196.226 51.072 196.461 51.136 196.653 51.264C196.845 51.3707 196.994 51.5733 197.101 51.872C197.165 52.0213 197.197 52.192 197.197 52.384C197.197 52.7467 197.101 53.0987 196.909 53.44C196.738 53.76 196.61 54.0053 196.525 54.176C196.504 54.24 196.429 54.304 196.301 54.368C196.173 54.4107 196.12 54.3893 196.141 54.304C196.162 54.1973 196.173 54.0907 196.173 53.984C196.194 53.8773 196.205 53.76 196.205 53.632C196.205 53.2693 196.13 52.9387 195.981 52.64C195.853 52.3413 195.608 52.192 195.245 52.192C194.904 52.192 194.488 52.4053 193.997 52.832C193.506 53.2587 193.016 53.7493 192.525 54.304C191.906 55.0293 191.416 55.7227 191.053 56.384C190.69 57.024 190.392 57.6533 190.157 58.272C190.029 58.6133 189.901 58.9547 189.773 59.296C189.645 59.616 189.549 59.872 189.485 60.064C189.208 60.0853 188.93 60.1493 188.653 60.256C188.376 60.384 188.184 60.448 188.077 60.448ZM198.428 60.256C197.553 60.256 196.945 60.0853 196.604 59.744C196.262 59.4027 196.092 58.9867 196.092 58.496C196.092 57.8773 196.252 57.216 196.572 56.512C196.913 55.808 197.233 55.2107 197.532 54.72C197.873 54.208 198.332 53.6747 198.908 53.12C199.484 52.5653 200.113 52.096 200.796 51.712C201.478 51.328 202.14 51.136 202.78 51.136C203.334 51.136 203.718 51.2747 203.932 51.552C204.145 51.808 204.252 52.1173 204.252 52.48C204.252 53.1413 204.049 53.6853 203.644 54.112C203.26 54.5387 202.78 54.8907 202.204 55.168C201.628 55.424 201.073 55.6373 200.54 55.808C200.22 55.8933 199.846 55.9787 199.42 56.064C198.993 56.1493 198.588 56.192 198.204 56.192C198.054 56.576 197.937 56.9493 197.852 57.312C197.766 57.6747 197.724 58.0053 197.724 58.304C197.724 58.6667 197.809 58.9653 197.98 59.2C198.172 59.4347 198.481 59.552 198.908 59.552C199.078 59.552 199.281 59.5307 199.516 59.488C199.75 59.4453 200.006 59.3813 200.284 59.296C200.924 59.0827 201.553 58.7413 202.172 58.272C202.79 57.8027 203.356 57.3013 203.868 56.768C204.401 56.2133 204.806 55.7547 205.084 55.392C205.148 55.456 205.18 55.5307 205.18 55.616C205.18 55.7227 205.105 55.8933 204.956 56.128C204.529 56.7253 203.974 57.344 203.292 57.984C202.609 58.624 201.852 59.168 201.02 59.616C200.188 60.0427 199.324 60.256 198.428 60.256ZM198.46 55.552C198.737 55.5733 199.046 55.5733 199.388 55.552C199.75 55.5093 200.102 55.4347 200.444 55.328C201.318 55.072 201.948 54.6667 202.332 54.112C202.737 53.536 202.94 53.024 202.94 52.576C202.94 52.32 202.886 52.1067 202.78 51.936C202.673 51.7653 202.502 51.68 202.268 51.68C201.649 51.68 201.094 51.9147 200.604 52.384C200.113 52.832 199.686 53.3547 199.324 53.952C198.961 54.5493 198.673 55.0827 198.46 55.552Z" fill="white"/>
</svg>
